<?xml version="1.0" encoding="UTF-8"?>
<svg id="Layer_1" data-name="Layer 1" xmlns="http://www.w3.org/2000/svg" viewBox="0 0 856.34 623.24">
  <defs>
    <style>
      .cls-1 {
        stroke-width: 7.5px;
      }

      .cls-1, .cls-2, .cls-3, .cls-4 {
        fill: none;
        stroke: #fff;
        stroke-miterlimit: 10;
      }

      .cls-2 {
        stroke-width: 8px;
      }

      .cls-3 {
        stroke-width: 10px;
      }

      .cls-4 {
        stroke-width: 9px;
      }
    </style>
  </defs>
  <path class="cls-1" d="m567,218.02c.3.49,5.5,8.51,15.32,8.51,9.82,0,15.02-8.02,15.32-8.51"/>
  <path class="cls-3" d="m506.06,272.83c14.35,28.01,42.85,46.07,74.21,46.99,31.92.93,61.87-16.02,77.62-43.92"/>
  <path class="cls-2" d="m548.62,252.4c1.85,2.04,14.27,15.28,34.38,14.98,19.32-.29,31.1-12.85,33.02-14.98"/>
  <line class="cls-4" x1="581.98" y1="319.82" x2="581.98" y2="193.17"/>
  <path class="cls-3" d="m657.89,330.02c-14.35-28.01-42.85-46.07-74.21-46.99-31.92-.93-61.87,16.02-77.62,43.92"/>
  <polygon class="cls-3" points="529.72 301.51 635.94 301.51 582.83 540.32 529.72 301.51"/>
</svg>